<svg width="495" height="256" viewBox="0 0 495 256" fill="none" xmlns="http://www.w3.org/2000/svg">
<path fill-rule="evenodd" clip-rule="evenodd" d="M138.272 177.246L61.7412 27.7294C55.3816 15.3047 40.154 10.3881 27.7294 16.7477C15.3047 23.1073 10.3881 38.3349 16.7477 50.7595L93.2786 200.277C99.6382 212.701 114.866 217.618 127.29 211.258C139.715 204.899 144.632 189.671 138.272 177.246ZM25.9578 13.2866C11.6217 20.6246 5.94862 38.1949 13.2866 52.5311L89.8175 202.048C97.1555 216.384 114.726 222.057 129.062 214.719C143.398 207.381 149.071 189.811 141.733 175.475L65.2022 25.9578C57.8642 11.6217 40.2939 5.94863 25.9578 13.2866Z" fill="#38FFC3"/>
<path fill-rule="evenodd" clip-rule="evenodd" d="M93.7318 177.246L170.263 27.7294C176.622 15.3047 191.85 10.3881 204.275 16.7477C216.699 23.1073 221.616 38.3349 215.256 50.7595L138.725 200.277C132.366 212.701 117.138 217.618 104.713 211.258C92.2889 204.899 87.3722 189.671 93.7318 177.246ZM206.046 13.2866C220.382 20.6246 226.055 38.1949 218.717 52.531L142.186 202.048C134.848 216.384 117.278 222.057 102.942 214.719C88.6058 207.381 82.9327 189.811 90.2708 175.475L166.802 25.9578C174.14 11.6217 191.71 5.94863 206.046 13.2866Z" fill="#38FFC3"/>
<path fill-rule="evenodd" clip-rule="evenodd" d="M138.272 78.7536L61.7412 228.271C55.3816 240.695 40.154 245.612 27.7294 239.252C15.3047 232.893 10.3881 217.665 16.7477 205.24L93.2786 55.7235C99.6382 43.2989 114.866 38.3822 127.29 44.7418C139.715 51.1014 144.632 66.329 138.272 78.7536ZM25.9578 242.713C11.6217 235.375 5.94862 217.805 13.2866 203.469L89.8175 53.9519C97.1555 39.6158 114.726 33.9428 129.062 41.2807C143.398 48.6187 149.071 66.1891 141.733 80.5252L65.2022 230.042C57.8642 244.378 40.2939 250.051 25.9578 242.713Z" fill="#38FFC3"/>
<path fill-rule="evenodd" clip-rule="evenodd" d="M93.7318 78.7536L170.263 228.271C176.622 240.695 191.85 245.612 204.275 239.252C216.699 232.893 221.616 217.665 215.256 205.24L138.725 55.7235C132.366 43.2989 117.138 38.3822 104.713 44.7418C92.2889 51.1014 87.3722 66.329 93.7318 78.7536ZM206.046 242.713C220.382 235.375 226.055 217.805 218.717 203.469L142.186 53.9519C134.848 39.6158 117.278 33.9428 102.942 41.2807C88.6058 48.6187 82.9327 66.1891 90.2708 80.5252L166.802 230.042C174.14 244.378 191.71 250.051 206.046 242.713Z" fill="#38FFC3"/>
<path d="M321.591 102.136C325.431 102.136 328.546 103.501 330.935 106.232C333.41 108.877 334.647 113.741 334.647 120.824V171H324.791V122.616C324.791 117.923 324.492 114.765 323.895 113.144C323.298 111.437 321.847 110.584 319.543 110.584C315.191 110.584 311.266 113.272 307.767 118.648V171H297.783V122.616C297.783 117.923 297.484 114.765 296.887 113.144C296.29 111.437 294.839 110.584 292.535 110.584C288.183 110.584 284.258 113.272 280.759 118.648V171H270.903V103.544H279.223L279.991 111.48C282.039 108.493 284.172 106.189 286.391 104.568C288.695 102.947 291.426 102.136 294.583 102.136C300.898 102.136 304.951 105.123 306.743 111.096C308.791 108.195 310.967 105.976 313.271 104.44C315.575 102.904 318.348 102.136 321.591 102.136ZM379.525 72.056C381.914 72.056 383.834 72.7813 385.285 74.232C386.736 75.5973 387.461 77.3893 387.461 79.608C387.461 81.8267 386.736 83.6613 385.285 85.112C383.834 86.4773 381.914 87.16 379.525 87.16C377.221 87.16 375.344 86.4773 373.893 85.112C372.528 83.6613 371.845 81.8267 371.845 79.608C371.845 77.3893 372.528 75.5973 373.893 74.232C375.344 72.7813 377.221 72.056 379.525 72.056ZM388.101 162.424H407.045V171H356.613V162.424H377.349V112.12H357.253V103.544H388.101V162.424ZM425.043 171L449.875 135.416L427.987 103.544H440.787L456.403 128.632L472.147 103.544H484.563L462.675 134.904L487.507 171H474.451L455.891 142.072L437.331 171H425.043Z" fill="#38FFC3"/>
</svg>
