<svg width="300" height="300" viewBox="0 0 300 300" fill="none" xmlns="http://www.w3.org/2000/svg">
<path fill-rule="evenodd" clip-rule="evenodd" d="M171.576 197.99L97.7468 53.7506C91.6117 41.7645 76.9216 37.0214 64.9356 43.1565C52.9495 49.2916 48.2064 63.9817 54.3415 75.9677L128.171 220.207C134.306 232.193 148.996 236.936 160.982 230.801C172.968 224.666 177.711 209.976 171.576 197.99ZM63.2266 39.8177C49.3965 46.8966 43.9237 63.8467 51.0027 77.6768L124.832 221.916C131.911 235.746 148.861 241.219 162.691 234.14C176.521 227.061 181.994 210.111 174.915 196.281L101.086 52.0416C94.0067 38.2115 77.0566 32.7387 63.2266 39.8177Z" fill="#5C2494"/>
<path d="M97.7468 53.7506L171.576 197.99C177.711 209.976 172.968 224.666 160.982 230.801C148.996 236.936 134.306 232.193 128.171 220.207L54.3415 75.9677C48.2064 63.9817 52.9495 49.2916 64.9356 43.1565C76.9216 37.0214 91.6117 41.7645 97.7468 53.7506Z" fill="#5C2494"/>
<path fill-rule="evenodd" clip-rule="evenodd" d="M128.609 197.99L202.438 53.7506C208.573 41.7645 223.263 37.0214 235.249 43.1565C247.236 49.2916 251.979 63.9817 245.844 75.9677L172.014 220.207C165.879 232.193 151.189 236.936 139.203 230.801C127.217 224.666 122.474 209.976 128.609 197.99ZM236.958 39.8177C250.789 46.8966 256.261 63.8467 249.182 77.6768L175.353 221.916C168.274 235.746 151.324 241.219 137.494 234.14C123.664 227.061 118.191 210.111 125.27 196.281L199.099 52.0416C206.178 38.2115 223.128 32.7387 236.958 39.8177Z" fill="#5C2494"/>
<path d="M202.438 53.7506L128.609 197.99C122.474 209.976 127.217 224.666 139.203 230.801C151.189 236.936 165.879 232.193 172.014 220.207L245.844 75.9677C251.979 63.9817 247.236 49.2916 235.249 43.1565C223.263 37.0214 208.573 41.7645 202.438 53.7506Z" fill="#5C2494"/>
<path fill-rule="evenodd" clip-rule="evenodd" d="M171.391 102.748L97.5617 246.987C91.4266 258.973 76.7366 263.716 64.7505 257.581C52.7645 251.446 48.0214 236.756 54.1565 224.77L127.986 80.531C134.121 68.545 148.811 63.8019 160.797 69.937C172.783 76.0721 177.526 90.7622 171.391 102.748ZM63.0415 260.92C49.2115 253.841 43.7386 236.891 50.8176 223.061L124.647 78.822C131.726 64.992 148.676 59.5191 162.506 66.5981C176.336 73.6771 181.809 90.6272 174.73 104.457L100.901 248.696C93.8216 262.526 76.8715 267.999 63.0415 260.92Z" fill="#763AB3"/>
<path d="M97.5617 246.987L171.391 102.748C177.526 90.7622 172.783 76.0721 160.797 69.937C148.811 63.8019 134.121 68.545 127.986 80.531L54.1565 224.77C48.0214 236.756 52.7645 251.446 64.7505 257.581C76.7366 263.716 91.4266 258.973 97.5617 246.987Z" fill="#763AB3"/>
<path fill-rule="evenodd" clip-rule="evenodd" d="M128.424 102.748L202.253 246.987C208.388 258.973 223.078 263.716 235.064 257.581C247.05 251.446 251.794 236.756 245.658 224.77L171.829 80.531C165.694 68.545 151.004 63.8019 139.018 69.937C127.032 76.0721 122.289 90.7622 128.424 102.748ZM236.773 260.92C250.603 253.841 256.076 236.891 248.997 223.061L175.168 78.822C168.089 64.992 151.139 59.5191 137.309 66.5981C123.479 73.6771 118.006 90.6272 125.085 104.457L198.914 248.696C205.993 262.526 222.943 267.999 236.773 260.92Z" fill="#763AB3"/>
<path d="M202.253 246.987L128.424 102.748C122.289 90.7622 127.032 76.0721 139.018 69.937C151.004 63.8019 165.694 68.545 171.829 80.531L245.658 224.77C251.794 236.756 247.05 251.446 235.064 257.581C223.078 263.716 208.388 258.973 202.253 246.987Z" fill="#763AB3"/>
</svg>
