<svg width="300" height="300" viewBox="0 0 300 300" fill="none" xmlns="http://www.w3.org/2000/svg">
    <path fill-rule="evenodd" clip-rule="evenodd" d="M168.747 191.936L103.576 64.6133C98.1609 54.033 85.1936 49.8461 74.6133 55.2617C64.0329 60.6773 59.8461 73.6446 65.2617 84.2249L130.433 211.548C135.848 222.128 148.815 226.315 159.396 220.9C169.976 215.484 174.163 202.517 168.747 191.936ZM73.1047 52.3144C60.8966 58.5632 56.0656 73.5254 62.3144 85.7335L127.485 213.057C133.734 225.265 148.696 230.096 160.904 223.847C173.112 217.598 177.943 202.636 171.695 190.428L106.524 63.1047C100.275 50.8966 85.3128 46.0656 73.1047 52.3144Z" fill="#8F46D9" fill-opacity="0.3"/>
    <path d="M102.686 65.0689L167.857 192.392C173.021 202.481 169.029 214.845 158.94 220.009C148.851 225.173 136.487 221.181 131.323 211.092L66.1518 83.7693C60.9879 73.6805 64.9802 61.3158 75.0689 56.1519C85.1576 50.9879 97.5224 54.9802 102.686 65.0689ZM72.6491 51.4242C59.9493 57.9246 54.9238 73.4894 61.4242 86.1891L126.595 213.512C133.095 226.212 148.66 231.237 161.36 224.737C174.06 218.237 179.085 202.672 172.585 189.972L107.414 62.6491C100.914 49.9494 85.3488 44.9238 72.6491 51.4242Z" stroke="#8F46D9" stroke-opacity="0.3" stroke-width="2"/>
    <path fill-rule="evenodd" clip-rule="evenodd" d="M130.818 191.936L195.989 64.6133C201.405 54.033 214.372 49.8461 224.952 55.2617C235.532 60.6773 239.719 73.6446 234.304 84.2249L169.133 211.548C163.717 222.128 150.75 226.315 140.17 220.9C129.589 215.484 125.403 202.517 130.818 191.936ZM226.461 52.3144C238.669 58.5632 243.5 73.5254 237.251 85.7335L172.08 213.057C165.831 225.265 150.869 230.096 138.661 223.847C126.453 217.598 121.622 202.636 127.871 190.428L193.042 63.1047C199.29 50.8966 214.253 46.0656 226.461 52.3144Z" fill="#8F46D9" fill-opacity="0.3"/>
    <path d="M196.879 65.0689L131.708 192.392C126.544 202.481 130.537 214.845 140.625 220.009C150.714 225.173 163.079 221.181 168.243 211.092L233.414 83.7693C238.578 73.6805 234.585 61.3158 224.497 56.1519C214.408 50.9879 202.043 54.9802 196.879 65.0689ZM226.916 51.4242C239.616 57.9246 244.642 73.4894 238.141 86.1891L172.97 213.512C166.47 226.212 150.905 231.237 138.205 224.737C125.506 218.237 120.48 202.672 126.981 189.972L192.151 62.6491C198.652 49.9494 214.217 44.9238 226.916 51.4242Z" stroke="#8F46D9" stroke-opacity="0.3" stroke-width="2"/>
    <path d="M102.686 234.931L167.857 107.608C173.021 97.5193 169.029 85.1546 158.94 79.9906C148.851 74.8267 136.487 78.819 131.323 88.9077L66.1518 216.231C60.9879 226.319 64.9802 238.684 75.0689 243.848C85.1576 249.012 97.5224 245.02 102.686 234.931ZM72.6491 248.576C59.9493 242.075 54.9238 226.511 61.4242 213.811L126.595 86.4878C133.095 73.7881 148.66 68.7626 161.36 75.263C174.06 81.7634 179.085 97.3282 172.585 110.028L107.414 237.351C100.914 250.051 85.3488 255.076 72.6491 248.576Z" fill="#8F46D9" stroke="#8F46D9" stroke-width="2"/>
    <path d="M196.879 234.931L131.708 107.608C126.544 97.5193 130.537 85.1546 140.625 79.9906C150.714 74.8267 163.079 78.819 168.243 88.9077L233.414 216.231C238.578 226.319 234.585 238.684 224.497 243.848C214.408 249.012 202.043 245.02 196.879 234.931ZM226.916 248.576C239.616 242.075 244.642 226.511 238.141 213.811L172.97 86.4878C166.47 73.7881 150.905 68.7626 138.205 75.263C125.506 81.7634 120.48 97.3282 126.981 110.028L192.151 237.351C198.652 250.051 214.217 255.076 226.916 248.576Z" fill="#8F46D9" stroke="#8F46D9" stroke-width="2"/>
</svg>
