<svg xmlns="http://www.w3.org/2000/svg" viewBox="0 0 200 200" style="enable-background:new 0 0 200 200;max-width:500px;margin:0 auto" xml:space="preserve"><style>@keyframes clr_one{20%{fill:#48a8d8}40%{fill:#7322cb}60%{fill:#502ad0}80%{fill:#3024d3}to{fill:#2d88cc}}@keyframes grow{50%{transform:scale(.9)}}@keyframes fade{25%{opacity:0}50%{opacity:1}}.st6{fill:#fff}.txt path:nth-of-type(1){animation:fade 3s ease infinite}.txt path:nth-of-type(2){animation:fade 3s .1s ease infinite}.txt path:nth-of-type(3){animation:fade 3s .2s ease infinite}</style><g style="transform-origin:100px 100px;animation:grow 12s cubic-bezier(.74,.02,.36,.97) infinite"><g class="txt"><path class="st6" d="M58.5 120.7c-.3 0-.6-.1-.9-.3-.2-.2-.3-.5-.3-.8V87.7c0-.4.1-.7.3-.9.2-.2.5-.3.9-.3h3.9c.5 0 .8.1 1 .4s.4.4.4.6l9.5 17.5 9.5-17.6c0-.2.2-.4.4-.6.2-.2.6-.4 1-.4H88c.4 0 .6.1.9.3.2.2.3.5.3.9v31.9c0 .3-.1.6-.3.8-.2.2-.5.3-.9.3h-4.1c-.3 0-.6-.1-.8-.3-.2-.2-.3-.5-.3-.8V98.3l-6.9 13.1c-.1.3-.3.6-.6.8-.3.2-.6.3-1 .3h-2c-.4 0-.8-.1-1-.3s-.5-.5-.6-.8l-6.8-13.1v21.2c0 .3-.1.6-.3.8s-.5.3-.8.3h-4.3zM106.7 120.7c-.3 0-.6-.1-.8-.3-.2-.2-.3-.5-.3-.8V87.7c0-.3.1-.6.3-.8.2-.2.5-.3.8-.3h4.6c.3 0 .6.1.8.3.2.2.3.5.3.8v31.9c0 .3-.1.6-.3.8-.2.2-.5.3-.8.3h-4.6zM127.5 120.7c-.3 0-.5-.1-.7-.3-.2-.2-.3-.4-.3-.7 0-.1 0-.2.1-.3s.1-.2.1-.3l11-15.9L127.3 88c-.1-.2-.2-.4-.2-.6 0-.3.1-.5.3-.7.2-.2.4-.3.7-.3h5c.4 0 .7.1 1 .3s.4.4.6.6l7.3 10.6 7.3-10.6c.1-.2.3-.4.6-.6.2-.2.6-.3.9-.3h4.8c.3 0 .5.1.7.3.2.2.3.4.3.7 0 .2-.1.4-.2.6l-10.3 15.2 11 15.9c.1.1.1.2.1.3v.3c0 .3-.1.5-.3.7-.2.2-.4.3-.7.3H151c-.4 0-.7-.1-.9-.3-.2-.2-.4-.4-.5-.6l-7.8-11.1-7.8 11.1c-.1.2-.3.4-.5.6-.2.2-.6.3-1 .3h-5z"/></g></g><defs><filter id="fancy-goo"><feGaussianBlur in="SourceGraphic" stdDeviation="10" result="blur"/><feColorMatrix in="blur" values="1 0 0 0 0 0 1 0 0 0 0 0 1 0 0 0 0 0 19 -9" result="goo"/><feComposite in="SourceGraphic" in2="goo" operator="atop"/></filter></defs></svg>
