<svg width="200" height="200" viewBox="0 0 200 200" fill="none" xmlns="http://www.w3.org/2000/svg">
<path fill-rule="evenodd" clip-rule="evenodd" d="M111.216 125.008L72.353 49.0813C69.1235 42.7719 61.3907 40.2752 55.0813 43.5047C48.7719 46.7341 46.2752 54.4669 49.5047 60.7763L88.368 136.703C91.5975 143.012 99.3303 145.509 105.64 142.28C111.949 139.05 114.446 131.317 111.216 125.008ZM54.1817 41.7471C46.9016 45.4734 44.0208 54.3959 47.7471 61.6759L86.6105 137.603C90.3368 144.883 99.2592 147.763 106.539 144.037C113.819 140.311 116.7 131.388 112.974 124.108L74.1105 48.1817C70.3842 40.9016 61.4618 38.0208 54.1817 41.7471Z" fill="#8F46D9" fill-opacity="0.3"/>
<path d="M71.4628 49.5369L110.326 125.464C113.304 131.281 111.002 138.412 105.184 141.389C99.3663 144.367 92.236 142.065 89.2582 136.247L50.3948 60.3207C47.417 54.5029 49.7192 47.3727 55.537 44.3948C61.3547 41.417 68.485 43.7192 71.4628 49.5369ZM53.7261 40.8569C45.9544 44.8349 42.879 54.3599 46.8569 62.1315L85.7203 138.058C89.6983 145.83 99.2233 148.905 106.995 144.927C114.767 140.949 117.842 131.424 113.864 123.653L75.0007 47.726C71.0227 39.9544 61.4977 36.879 53.7261 40.8569Z" stroke="#8F46D9" stroke-opacity="0.3" stroke-width="2"/>
<path fill-rule="evenodd" clip-rule="evenodd" d="M88.5981 125.008L127.461 49.0813C130.691 42.7719 138.424 40.2752 144.733 43.5047C151.043 46.7341 153.539 54.4669 150.31 60.7763L111.446 136.703C108.217 143.012 100.484 145.509 94.1748 142.28C87.8654 139.05 85.3686 131.317 88.5981 125.008ZM145.633 41.7471C152.913 45.4734 155.794 54.3959 152.067 61.6759L113.204 137.603C109.478 144.883 100.555 147.763 93.2752 144.037C85.9951 140.311 83.1142 131.388 86.8406 124.108L125.704 48.1817C129.43 40.9016 138.353 38.0208 145.633 41.7471Z" fill="#8F46D9" fill-opacity="0.3"/>
<path d="M128.352 49.5369L89.4883 125.464C86.5105 131.281 88.8127 138.412 94.6304 141.389C100.448 144.367 107.578 142.065 110.556 136.247L149.42 60.3207C152.397 54.5029 150.095 47.3727 144.277 44.3948C138.46 41.417 131.33 43.7192 128.352 49.5369ZM146.088 40.8569C153.86 44.8349 156.935 54.3599 152.958 62.1315L114.094 138.058C110.116 145.83 100.591 148.905 92.8195 144.927C85.0478 140.949 81.9724 131.424 85.9504 123.653L124.814 47.726C128.792 39.9544 138.317 36.879 146.088 40.8569Z" stroke="#8F46D9" stroke-opacity="0.3" stroke-width="2"/>
<path d="M71.4628 150.463L110.326 74.5364C113.304 68.7187 111.002 61.5884 105.184 58.6106C99.3663 55.6328 92.236 57.935 89.2582 63.7527L50.3948 139.679C47.417 145.497 49.7192 152.627 55.537 155.605C61.3547 158.583 68.485 156.281 71.4628 150.463ZM53.7261 159.143C45.9544 155.165 42.879 145.64 46.8569 137.868L85.7203 61.9418C89.6983 54.1701 99.2233 51.0947 106.995 55.0727C114.767 59.0507 117.842 68.5756 113.864 76.3473L75.0007 152.274C71.0227 160.046 61.4977 163.121 53.7261 159.143Z" fill="#8F46D9" stroke="#8F46D9" stroke-width="2"/>
<path d="M128.352 150.463L89.4883 74.5364C86.5105 68.7187 88.8127 61.5884 94.6304 58.6106C100.448 55.6328 107.578 57.935 110.556 63.7527L149.42 139.679C152.397 145.497 150.095 152.627 144.277 155.605C138.46 158.583 131.33 156.281 128.352 150.463ZM146.088 159.143C153.86 155.165 156.935 145.64 152.958 137.868L114.094 61.9418C110.116 54.1701 100.591 51.0947 92.8195 55.0727C85.0478 59.0507 81.9724 68.5756 85.9504 76.3473L124.814 152.274C128.792 160.046 138.317 163.121 146.088 159.143Z" fill="#8F46D9" stroke="#8F46D9" stroke-width="2"/>
</svg>
